<svg width="300" height="300" viewBox="0 0 300 300" fill="none" xmlns="http://www.w3.org/2000/svg">
<path d="M151 235.5C189.478 235.5 224.334 224.112 249.583 205.675C274.831 187.239 290.5 161.727 290.5 133.5C290.5 105.273 274.831 79.7613 249.583 61.3249C224.334 42.8881 189.478 31.5 151 31.5C112.522 31.5 77.6657 42.8881 52.4173 61.3249C27.1693 79.7613 11.5 105.273 11.5 133.5C11.5 161.727 27.1693 187.239 52.4173 205.675C77.6657 224.112 112.522 235.5 151 235.5Z" fill="#2196F3" stroke="#646D72"/>
<path d="M151 212.944C180.949 212.944 208.082 204.081 227.741 189.726C247.399 175.371 259.611 155.498 259.611 133.5C259.611 111.502 247.399 91.6288 227.741 77.274C208.082 62.919 180.949 54.0556 151 54.0556C121.051 54.0556 93.9176 62.919 74.259 77.274C54.6008 91.6288 42.3889 111.502 42.3889 133.5C42.3889 155.498 54.6008 175.371 74.259 189.726C93.9176 204.081 121.051 212.944 151 212.944Z" fill="#64B5F6" stroke="#646D72"/>
<path fill-rule="evenodd" clip-rule="evenodd" d="M196.389 91.5444C194.925 91.1882 193.4 91 191.833 91H111.167C100.029 91 91 100.514 91 112.25V150.63L61 181.5L100.426 172.739C103.536 174.805 107.219 176 111.167 176H191.833C202.971 176 212 166.486 212 154.75V112.25C212 111.477 211.961 110.714 211.884 109.962L235.074 75L196.389 91.5444Z" fill="white" fill-opacity="0.8"/>
<path d="M196.389 91.5444L196.152 92.516L196.476 92.5947L196.782 92.4638L196.389 91.5444ZM91 150.63L91.7171 151.327L92 151.036V150.63H91ZM61 181.5L60.2829 180.803L57.9517 183.202L61.2169 182.476L61 181.5ZM100.426 172.739L100.979 171.906L100.625 171.67L100.209 171.762L100.426 172.739ZM211.884 109.962L211.051 109.409L210.853 109.707L210.89 110.063L211.884 109.962ZM235.074 75L235.907 75.5527L237.756 72.7653L234.681 74.0805L235.074 75ZM196.625 90.5727C195.085 90.1979 193.48 90 191.833 90V92C193.32 92 194.765 92.1785 196.152 92.516L196.625 90.5727ZM191.833 90H111.167V92H191.833V90ZM111.167 90C99.428 90 90 100.012 90 112.25H92C92 101.016 100.63 92 111.167 92V90ZM90 112.25V150.63H92V112.25H90ZM90.2829 149.933L60.2829 180.803L61.7171 182.197L91.7171 151.327L90.2829 149.933ZM61.2169 182.476L100.643 173.715L100.209 171.762L60.7831 180.524L61.2169 182.476ZM99.8727 173.572C103.139 175.741 107.013 177 111.167 177V175C107.425 175 103.933 173.868 100.979 171.906L99.8727 173.572ZM111.167 177H191.833V175H111.167V177ZM191.833 177C203.572 177 213 166.988 213 154.75H211C211 165.984 202.37 175 191.833 175V177ZM213 154.75V112.25H211V154.75H213ZM213 112.25C213 111.443 212.959 110.646 212.879 109.861L210.89 110.063C210.963 110.781 211 111.511 211 112.25H213ZM212.718 110.515L235.907 75.5527L234.241 74.4472L211.051 109.409L212.718 110.515ZM234.681 74.0805L195.996 90.6249L196.782 92.4638L235.467 75.9194L234.681 74.0805Z" fill="#B0BEC5"/>
<mask id="path-5-outside-1_1_2" maskUnits="userSpaceOnUse" x="107" y="117" width="93" height="33" fill="black">
<rect fill="white" x="107" y="117" width="93" height="33"/>
<path d="M114.507 118.909V148H108.357V118.909H114.507ZM118.46 123.98V118.909H142.352V123.98H133.445V148H127.366V123.98H118.46ZM149.425 148.412C148.033 148.412 146.793 148.17 145.704 147.687C144.615 147.195 143.753 146.471 143.119 145.514C142.494 144.548 142.181 143.346 142.181 141.906C142.181 140.694 142.404 139.676 142.849 138.852C143.294 138.028 143.9 137.365 144.667 136.864C145.434 136.362 146.305 135.983 147.281 135.727C148.265 135.472 149.298 135.292 150.377 135.187C151.646 135.055 152.669 134.932 153.445 134.818C154.222 134.695 154.785 134.515 155.136 134.278C155.486 134.042 155.661 133.691 155.661 133.227V133.142C155.661 132.242 155.377 131.546 154.809 131.054C154.25 130.562 153.455 130.315 152.423 130.315C151.334 130.315 150.467 130.557 149.823 131.04C149.179 131.513 148.753 132.11 148.545 132.83L142.948 132.375C143.232 131.049 143.791 129.903 144.624 128.937C145.458 127.962 146.532 127.214 147.849 126.693C149.174 126.163 150.709 125.898 152.451 125.898C153.663 125.898 154.823 126.04 155.931 126.324C157.049 126.608 158.038 127.048 158.9 127.645C159.771 128.241 160.458 129.008 160.96 129.946C161.461 130.874 161.712 131.987 161.712 133.284V148H155.974V144.974H155.803C155.453 145.656 154.984 146.258 154.397 146.778C153.81 147.29 153.104 147.692 152.281 147.986C151.457 148.27 150.505 148.412 149.425 148.412ZM151.158 144.236C152.049 144.236 152.835 144.061 153.516 143.71C154.198 143.35 154.733 142.867 155.121 142.261C155.51 141.655 155.704 140.969 155.704 140.202V137.886C155.514 138.009 155.254 138.123 154.923 138.227C154.601 138.322 154.236 138.412 153.829 138.497C153.422 138.573 153.014 138.644 152.607 138.71C152.2 138.767 151.831 138.819 151.499 138.866C150.789 138.971 150.169 139.136 149.638 139.364C149.108 139.591 148.696 139.899 148.403 140.287C148.109 140.666 147.962 141.139 147.962 141.707C147.962 142.531 148.261 143.161 148.857 143.597C149.463 144.023 150.23 144.236 151.158 144.236ZM172.458 118.909V148H166.407V118.909H172.458ZM182.788 141.722L182.803 134.463H183.683L190.672 126.182H197.618L188.229 137.148H186.794L182.788 141.722ZM177.305 148V118.909H183.357V148H177.305ZM190.942 148L184.521 138.497L188.555 134.222L198.03 148H190.942Z"/>
</mask>
<path d="M114.507 118.909V148H108.357V118.909H114.507ZM118.46 123.98V118.909H142.352V123.98H133.445V148H127.366V123.98H118.46ZM149.425 148.412C148.033 148.412 146.793 148.17 145.704 147.687C144.615 147.195 143.753 146.471 143.119 145.514C142.494 144.548 142.181 143.346 142.181 141.906C142.181 140.694 142.404 139.676 142.849 138.852C143.294 138.028 143.9 137.365 144.667 136.864C145.434 136.362 146.305 135.983 147.281 135.727C148.265 135.472 149.298 135.292 150.377 135.187C151.646 135.055 152.669 134.932 153.445 134.818C154.222 134.695 154.785 134.515 155.136 134.278C155.486 134.042 155.661 133.691 155.661 133.227V133.142C155.661 132.242 155.377 131.546 154.809 131.054C154.25 130.562 153.455 130.315 152.423 130.315C151.334 130.315 150.467 130.557 149.823 131.04C149.179 131.513 148.753 132.11 148.545 132.83L142.948 132.375C143.232 131.049 143.791 129.903 144.624 128.937C145.458 127.962 146.532 127.214 147.849 126.693C149.174 126.163 150.709 125.898 152.451 125.898C153.663 125.898 154.823 126.04 155.931 126.324C157.049 126.608 158.038 127.048 158.9 127.645C159.771 128.241 160.458 129.008 160.96 129.946C161.461 130.874 161.712 131.987 161.712 133.284V148H155.974V144.974H155.803C155.453 145.656 154.984 146.258 154.397 146.778C153.81 147.29 153.104 147.692 152.281 147.986C151.457 148.27 150.505 148.412 149.425 148.412ZM151.158 144.236C152.049 144.236 152.835 144.061 153.516 143.71C154.198 143.35 154.733 142.867 155.121 142.261C155.51 141.655 155.704 140.969 155.704 140.202V137.886C155.514 138.009 155.254 138.123 154.923 138.227C154.601 138.322 154.236 138.412 153.829 138.497C153.422 138.573 153.014 138.644 152.607 138.71C152.2 138.767 151.831 138.819 151.499 138.866C150.789 138.971 150.169 139.136 149.638 139.364C149.108 139.591 148.696 139.899 148.403 140.287C148.109 140.666 147.962 141.139 147.962 141.707C147.962 142.531 148.261 143.161 148.857 143.597C149.463 144.023 150.23 144.236 151.158 144.236ZM172.458 118.909V148H166.407V118.909H172.458ZM182.788 141.722L182.803 134.463H183.683L190.672 126.182H197.618L188.229 137.148H186.794L182.788 141.722ZM177.305 148V118.909H183.357V148H177.305ZM190.942 148L184.521 138.497L188.555 134.222L198.03 148H190.942Z" fill="white"/>
<path d="M114.507 118.909H115.507V117.909H114.507V118.909ZM114.507 148V149H115.507V148H114.507ZM108.357 148H107.357V149H108.357V148ZM108.357 118.909V117.909H107.357V118.909H108.357ZM113.507 118.909V148H115.507V118.909H113.507ZM114.507 147H108.357V149H114.507V147ZM109.357 148V118.909H107.357V148H109.357ZM108.357 119.909H114.507V117.909H108.357V119.909ZM118.46 123.98H117.46V124.98H118.46V123.98ZM118.46 118.909V117.909H117.46V118.909H118.46ZM142.352 118.909H143.352V117.909H142.352V118.909ZM142.352 123.98V124.98H143.352V123.98H142.352ZM133.445 123.98V122.98H132.445V123.98H133.445ZM133.445 148V149H134.445V148H133.445ZM127.366 148H126.366V149H127.366V148ZM127.366 123.98H128.366V122.98H127.366V123.98ZM119.46 123.98V118.909H117.46V123.98H119.46ZM118.46 119.909H142.352V117.909H118.46V119.909ZM141.352 118.909V123.98H143.352V118.909H141.352ZM142.352 122.98H133.445V124.98H142.352V122.98ZM132.445 123.98V148H134.445V123.98H132.445ZM133.445 147H127.366V149H133.445V147ZM128.366 148V123.98H126.366V148H128.366ZM127.366 122.98H118.46V124.98H127.366V122.98ZM145.704 147.687L145.292 148.599L145.298 148.602L145.704 147.687ZM143.119 145.514L142.279 146.057L142.285 146.067L143.119 145.514ZM142.849 138.852L141.969 138.377L141.969 138.377L142.849 138.852ZM144.667 136.864L144.119 136.027L144.119 136.027L144.667 136.864ZM147.281 135.727L147.029 134.759L147.027 134.76L147.281 135.727ZM150.377 135.187L150.473 136.183L150.481 136.182L150.377 135.187ZM153.445 134.818L153.59 135.808L153.602 135.806L153.445 134.818ZM155.136 134.278L154.576 133.45L154.576 133.45L155.136 134.278ZM154.809 131.054L154.148 131.804L154.154 131.81L154.809 131.054ZM149.823 131.04L150.416 131.845L150.423 131.84L149.823 131.04ZM148.545 132.83L148.464 133.826L149.278 133.892L149.505 133.108L148.545 132.83ZM142.948 132.375L141.97 132.165L141.732 133.279L142.867 133.372L142.948 132.375ZM144.624 128.937L145.381 129.591L145.385 129.587L144.624 128.937ZM147.849 126.693L148.217 127.623L148.22 127.622L147.849 126.693ZM155.931 126.324L155.683 127.292L155.685 127.293L155.931 126.324ZM158.9 127.645L158.331 128.467L158.335 128.47L158.9 127.645ZM160.96 129.946L160.078 130.418L160.08 130.422L160.96 129.946ZM161.712 148V149H162.712V148H161.712ZM155.974 148H154.974V149H155.974V148ZM155.974 144.974H156.974V143.974H155.974V144.974ZM155.803 144.974V143.974H155.193L154.914 144.517L155.803 144.974ZM154.397 146.778L155.054 147.532L155.061 147.526L154.397 146.778ZM152.281 147.986L152.607 148.931L152.616 148.928L152.281 147.986ZM153.516 143.71L153.973 144.6L153.983 144.595L153.516 143.71ZM155.121 142.261L154.279 141.722L154.279 141.722L155.121 142.261ZM155.704 137.886H156.704V136.044L155.159 137.048L155.704 137.886ZM154.923 138.227L155.205 139.187L155.214 139.184L155.222 139.181L154.923 138.227ZM153.829 138.497L154.012 139.48L154.023 139.478L154.034 139.476L153.829 138.497ZM152.607 138.71L152.745 139.701L152.757 139.699L152.768 139.697L152.607 138.71ZM151.499 138.866L151.358 137.876L151.354 137.877L151.499 138.866ZM149.638 139.364L150.032 140.283L150.032 140.283L149.638 139.364ZM148.403 140.287L149.193 140.9L149.2 140.89L148.403 140.287ZM148.857 143.597L148.268 144.404L148.275 144.409L148.282 144.415L148.857 143.597ZM149.425 147.412C148.15 147.412 147.051 147.191 146.109 146.773L145.298 148.602C146.535 149.15 147.917 149.412 149.425 149.412V147.412ZM146.116 146.776C145.191 146.358 144.478 145.754 143.952 144.961L142.285 146.067C143.028 147.187 144.039 148.032 145.292 148.599L146.116 146.776ZM143.958 144.971C143.461 144.203 143.181 143.201 143.181 141.906H141.181C141.181 143.49 141.526 144.893 142.279 146.057L143.958 144.971ZM143.181 141.906C143.181 140.813 143.382 139.969 143.729 139.328L141.969 138.377C141.425 139.384 141.181 140.576 141.181 141.906H143.181ZM143.729 139.328C144.096 138.647 144.59 138.109 145.214 137.7L144.119 136.027C143.21 136.622 142.491 137.41 141.969 138.377L143.729 139.328ZM145.214 137.7C145.883 137.263 146.653 136.926 147.534 136.695L147.027 134.76C145.958 135.04 144.985 135.46 144.119 136.027L145.214 137.7ZM147.532 136.695C148.463 136.454 149.443 136.282 150.473 136.183L150.281 134.192C149.153 134.301 148.068 134.49 147.029 134.759L147.532 136.695ZM150.481 136.182C151.756 136.049 152.794 135.924 153.59 135.808L153.301 133.829C152.543 133.94 151.536 134.061 150.273 134.193L150.481 136.182ZM153.602 135.806C154.42 135.676 155.16 135.469 155.696 135.107L154.576 133.45C154.411 133.561 154.024 133.714 153.289 133.83L153.602 135.806ZM155.696 135.107C156.351 134.664 156.661 133.985 156.661 133.227H154.661C154.661 133.332 154.642 133.378 154.635 133.391C154.631 133.4 154.62 133.42 154.576 133.45L155.696 135.107ZM156.661 133.227V133.142H154.661V133.227H156.661ZM156.661 133.142C156.661 132.015 156.294 131.018 155.464 130.298L154.154 131.81C154.46 132.075 154.661 132.47 154.661 133.142H156.661ZM155.47 130.304C154.669 129.597 153.604 129.315 152.423 129.315V131.315C153.305 131.315 153.832 131.526 154.148 131.804L155.47 130.304ZM152.423 129.315C151.193 129.315 150.092 129.588 149.223 130.24L150.423 131.84C150.842 131.526 151.474 131.315 152.423 131.315V129.315ZM149.231 130.234C148.422 130.829 147.858 131.606 147.584 132.551L149.505 133.108C149.648 132.614 149.936 132.198 150.416 131.845L149.231 130.234ZM148.626 131.833L143.029 131.378L142.867 133.372L148.464 133.826L148.626 131.833ZM143.926 132.584C144.177 131.412 144.665 130.422 145.381 129.591L143.867 128.284C142.917 129.385 142.287 130.686 141.97 132.165L143.926 132.584ZM145.385 129.587C146.101 128.748 147.036 128.09 148.217 127.623L147.481 125.763C146.029 126.338 144.814 127.176 143.864 128.288L145.385 129.587ZM148.22 127.622C149.405 127.148 150.809 126.898 152.451 126.898V124.898C150.609 124.898 148.944 125.178 147.477 125.765L148.22 127.622ZM152.451 126.898C153.584 126.898 154.661 127.03 155.683 127.292L156.179 125.355C154.986 125.049 153.742 124.898 152.451 124.898V126.898ZM155.685 127.293C156.698 127.551 157.576 127.945 158.331 128.467L159.469 126.823C158.5 126.152 157.399 125.665 156.178 125.355L155.685 127.293ZM158.335 128.47C159.073 128.975 159.651 129.621 160.078 130.418L161.841 129.474C161.264 128.396 160.469 127.508 159.465 126.82L158.335 128.47ZM160.08 130.422C160.487 131.174 160.712 132.115 160.712 133.284H162.712C162.712 131.858 162.436 130.574 161.839 129.47L160.08 130.422ZM160.712 133.284V148H162.712V133.284H160.712ZM161.712 147H155.974V149H161.712V147ZM156.974 148V144.974H154.974V148H156.974ZM155.974 143.974H155.803V145.974H155.974V143.974ZM154.914 144.517C154.621 145.086 154.23 145.59 153.733 146.03L155.061 147.526C155.738 146.925 156.284 146.226 156.693 145.431L154.914 144.517ZM153.74 146.024C153.258 146.444 152.665 146.787 151.945 147.044L152.616 148.928C153.543 148.597 154.361 148.136 155.054 147.532L153.74 146.024ZM151.955 147.04C151.257 147.281 150.419 147.412 149.425 147.412V149.412C150.59 149.412 151.656 149.259 152.607 148.931L151.955 147.04ZM151.158 145.236C152.182 145.236 153.129 145.034 153.973 144.6L153.059 142.821C152.54 143.088 151.915 143.236 151.158 143.236V145.236ZM153.983 144.595C154.806 144.16 155.475 143.563 155.963 142.801L154.279 141.722C153.991 142.172 153.59 142.541 153.05 142.826L153.983 144.595ZM155.963 142.801C156.462 142.023 156.704 141.147 156.704 140.202H154.704C154.704 140.791 154.558 141.288 154.279 141.722L155.963 142.801ZM156.704 140.202V137.886H154.704V140.202H156.704ZM155.159 137.048C155.075 137.103 154.909 137.183 154.623 137.273L155.222 139.181C155.599 139.063 155.954 138.916 156.249 138.725L155.159 137.048ZM154.64 137.268C154.349 137.354 154.011 137.437 153.624 137.518L154.034 139.476C154.461 139.386 154.852 139.29 155.205 139.187L154.64 137.268ZM153.646 137.514C153.246 137.588 152.846 137.658 152.447 137.723L152.768 139.697C153.183 139.63 153.597 139.557 154.012 139.48L153.646 137.514ZM152.469 137.72C152.061 137.777 151.691 137.829 151.358 137.876L151.641 139.856C151.971 139.809 152.339 139.757 152.745 139.701L152.469 137.72ZM151.354 137.877C150.578 137.991 149.871 138.176 149.245 138.444L150.032 140.283C150.467 140.097 151 139.95 151.644 139.856L151.354 137.877ZM149.245 138.444C148.584 138.727 148.021 139.133 147.605 139.684L149.2 140.89C149.371 140.664 149.632 140.454 150.032 140.283L149.245 138.444ZM147.612 139.674C147.159 140.259 146.962 140.96 146.962 141.707H148.962C148.962 141.318 149.059 141.072 149.193 140.899L147.612 139.674ZM146.962 141.707C146.962 142.808 147.381 143.757 148.268 144.404L149.447 142.789C149.141 142.565 148.962 142.254 148.962 141.707H146.962ZM148.282 144.415C149.095 144.986 150.077 145.236 151.158 145.236V143.236C150.384 143.236 149.832 143.059 149.432 142.779L148.282 144.415ZM172.458 118.909H173.458V117.909H172.458V118.909ZM172.458 148V149H173.458V148H172.458ZM166.407 148H165.407V149H166.407V148ZM166.407 118.909V117.909H165.407V118.909H166.407ZM171.458 118.909V148H173.458V118.909H171.458ZM172.458 147H166.407V149H172.458V147ZM167.407 148V118.909H165.407V148H167.407ZM166.407 119.909H172.458V117.909H166.407V119.909ZM182.788 141.722L181.788 141.72L181.783 144.387L183.541 142.38L182.788 141.722ZM182.803 134.463V133.463H181.805L181.803 134.461L182.803 134.463ZM183.683 134.463V135.463H184.148L184.447 135.108L183.683 134.463ZM190.672 126.182V125.182H190.207L189.908 125.537L190.672 126.182ZM197.618 126.182L198.378 126.832L199.791 125.182H197.618V126.182ZM188.229 137.148V138.148H188.689L188.988 137.798L188.229 137.148ZM186.794 137.148V136.148H186.341L186.042 136.489L186.794 137.148ZM177.305 148H176.305V149H177.305V148ZM177.305 118.909V117.909H176.305V118.909H177.305ZM183.357 118.909H184.357V117.909H183.357V118.909ZM183.357 148V149H184.357V148H183.357ZM190.942 148L190.113 148.56L190.411 149H190.942V148ZM184.521 138.497L183.794 137.811L183.244 138.393L183.693 139.057L184.521 138.497ZM188.555 134.222L189.379 133.655L188.678 132.635L187.828 133.535L188.555 134.222ZM198.03 148V149H199.931L198.854 147.433L198.03 148ZM183.788 141.724L183.803 134.465L181.803 134.461L181.788 141.72L183.788 141.724ZM182.803 135.463H183.683V133.463H182.803V135.463ZM184.447 135.108L191.436 126.827L189.908 125.537L182.919 133.818L184.447 135.108ZM190.672 127.182H197.618V125.182H190.672V127.182ZM196.858 125.531L187.469 136.497L188.988 137.798L198.378 126.832L196.858 125.531ZM188.229 136.148H186.794V138.148H188.229V136.148ZM186.042 136.489L182.036 141.063L183.541 142.38L187.546 137.807L186.042 136.489ZM178.305 148V118.909H176.305V148H178.305ZM177.305 119.909H183.357V117.909H177.305V119.909ZM182.357 118.909V148H184.357V118.909H182.357ZM183.357 147H177.305V149H183.357V147ZM191.77 147.44L185.35 137.937L183.693 139.057L190.113 148.56L191.77 147.44ZM185.249 139.183L189.283 134.908L187.828 133.535L183.794 137.811L185.249 139.183ZM187.731 134.788L197.206 148.567L198.854 147.433L189.379 133.655L187.731 134.788ZM198.03 147H190.942V149H198.03V147Z" fill="black" mask="url(#path-5-outside-1_1_2)"/>
<path fill-rule="evenodd" clip-rule="evenodd" d="M60.6846 192.616C54.9982 203.248 46.4979 210 37 210C19.8792 210 6 188.062 6 161C6 133.938 19.8792 112 37 112C54.1208 112 68 133.938 68 161C68 163.351 67.8952 165.664 67.6926 167.927L50 177L60.6846 192.616Z" fill="#FFD54F"/>
<path d="M60.6846 192.616L61.1255 192.852L61.2687 192.584L61.0973 192.334L60.6846 192.616ZM67.6926 167.927L67.9208 168.372L68.1661 168.246L68.1907 167.971L67.6926 167.927ZM50 177L49.7718 176.555L49.2669 176.814L49.5873 177.282L50 177ZM37 210.5C46.7558 210.5 55.3933 203.57 61.1255 192.852L60.2437 192.38C54.6031 202.927 46.24 209.5 37 209.5V210.5ZM5.5 161C5.5 174.611 8.98929 186.957 14.6572 195.916C20.321 204.868 28.2079 210.5 37 210.5V209.5C28.6712 209.5 21.0581 204.163 15.5022 195.381C9.9503 186.605 6.5 174.451 6.5 161H5.5ZM37 111.5C28.2079 111.5 20.321 117.132 14.6572 126.084C8.98929 135.043 5.5 147.389 5.5 161H6.5C6.5 147.549 9.9503 135.395 15.5022 126.619C21.0581 117.837 28.6712 112.5 37 112.5V111.5ZM68.5 161C68.5 147.389 65.0107 135.043 59.3428 126.084C53.679 117.132 45.7921 111.5 37 111.5V112.5C45.3288 112.5 52.9419 117.837 58.4978 126.619C64.0497 135.395 67.5 147.549 67.5 161H68.5ZM68.1907 167.971C68.3946 165.694 68.5 163.366 68.5 161H67.5C67.5 163.336 67.3959 165.634 67.1946 167.882L68.1907 167.971ZM67.4645 167.482L49.7718 176.555L50.2282 177.445L67.9208 168.372L67.4645 167.482ZM49.5873 177.282L60.272 192.898L61.0973 192.334L50.4127 176.718L49.5873 177.282Z" fill="#646D72"/>
<path d="M54 148C56.2091 148 58 146.209 58 144C58 141.791 56.2091 140 54 140C51.7909 140 50 141.791 50 144C50 146.209 51.7909 148 54 148Z" fill="#333333" stroke="#646D72"/>
<path fill-rule="evenodd" clip-rule="evenodd" d="M240.315 63.384C246.002 52.7515 254.502 46 264 46C281.121 46 295 67.938 295 95C295 122.062 281.121 144 264 144C246.879 144 233 122.062 233 95C233 92.6487 233.105 90.3361 233.307 88.0732L251 79L240.315 63.384Z" fill="#CE93D8"/>
<path d="M240.315 63.384L239.874 63.1482L239.731 63.4158L239.903 63.6663L240.315 63.384ZM233.307 88.0732L233.079 87.6282L232.834 87.754L232.809 88.0286L233.307 88.0732ZM251 79L251.228 79.4449L251.733 79.186L251.413 78.7177L251 79ZM264 45.5C254.244 45.5 245.607 52.4301 239.874 63.1482L240.756 63.6198C246.397 53.073 254.76 46.5 264 46.5V45.5ZM295.5 95C295.5 81.3892 292.011 69.0433 286.343 60.0844C280.679 51.1319 272.792 45.5 264 45.5V46.5C272.329 46.5 279.942 51.8372 285.498 60.6191C291.05 69.3947 294.5 81.5489 294.5 95H295.5ZM264 144.5C272.792 144.5 280.679 138.868 286.343 129.916C292.011 120.957 295.5 108.611 295.5 95H294.5C294.5 108.451 291.05 120.605 285.498 129.381C279.942 138.163 272.329 143.5 264 143.5V144.5ZM232.5 95C232.5 108.611 235.989 120.957 241.657 129.916C247.321 138.868 255.208 144.5 264 144.5V143.5C255.671 143.5 248.058 138.163 242.502 129.381C236.95 120.605 233.5 108.451 233.5 95H232.5ZM232.809 88.0286C232.605 90.3064 232.5 92.6339 232.5 95H233.5C233.5 92.6635 233.604 90.3658 233.805 88.1177L232.809 88.0286ZM233.536 88.5181L251.228 79.4449L250.772 78.5551L233.079 87.6282L233.536 88.5181ZM251.413 78.7177L240.728 63.1016L239.903 63.6663L250.587 79.2823L251.413 78.7177Z" fill="#646D72"/>
<path d="M247 108C244.791 108 243 109.791 243 112C243 114.209 244.791 116 247 116C249.209 116 251 114.209 251 112C251 109.791 249.209 108 247 108Z" fill="#333333" stroke="#646D72"/>
</svg>
